<?xml version="1.0" standalone="no"?>
<!DOCTYPE svg PUBLIC "-//W3C//DTD SVG 20010904//EN"
 "http://www.w3.org/TR/2001/REC-SVG-20010904/DTD/svg10.dtd">
<svg version="1.0" xmlns="http://www.w3.org/2000/svg"
 width="512.000000pt" height="512.000000pt" viewBox="0 0 512.000000 512.000000"
 preserveAspectRatio="xMidYMid meet">

<g transform="translate(0.000000,512.000000) scale(0.100000,-0.100000)"
fill="#000000" stroke="none">
<path d="M2528 4827 c-58 -22 -120 -62 -160 -104 -35 -36 -86 -123 -233 -393
-37 -69 -108 -199 -158 -290 -213 -390 -322 -589 -442 -810 -71 -129 -165
-302 -210 -385 -45 -82 -140 -256 -210 -385 -70 -129 -176 -323 -235 -430 -59
-107 -167 -305 -240 -440 -73 -135 -177 -324 -230 -420 -53 -96 -134 -244
-179 -329 -46 -84 -92 -168 -103 -187 l-20 -34 325 0 324 0 63 123 c35 67 86
163 113 212 28 50 90 167 140 260 49 94 120 226 157 295 87 161 256 477 402
750 64 118 184 343 268 500 84 157 204 382 267 500 64 118 166 310 228 425 62
116 137 255 166 311 89 167 70 169 178 -18 51 -90 131 -226 176 -303 45 -77
191 -328 325 -557 l243 -418 294 0 294 0 -12 23 c-15 27 -175 311 -379 672
-84 149 -183 324 -220 390 -37 66 -136 242 -220 390 -84 149 -180 319 -214
379 -75 134 -135 202 -218 246 -56 30 -73 34 -153 37 -59 2 -103 -1 -127 -10z"/>
<path d="M2606 3603 c-26 -55 -145 -282 -346 -663 -48 -91 -116 -221 -152
-290 -202 -385 -282 -539 -303 -575 -12 -22 -57 -107 -100 -190 -43 -82 -117
-224 -165 -315 -48 -91 -140 -266 -205 -390 -65 -124 -157 -299 -206 -390
l-88 -165 1837 -3 c2055 -2 1897 -8 1993 71 81 66 139 188 139 292 0 105 -5
115 -375 745 -92 157 -197 338 -234 402 l-66 118 -674 -3 -674 -2 -85 -155
c-47 -85 -122 -224 -168 -308 -46 -84 -84 -155 -84 -157 0 -3 332 -6 737 -7
l737 -3 102 -175 c57 -96 100 -178 98 -182 -6 -9 -2228 -11 -2237 -2 -3 4 0
16 7 28 8 11 79 147 159 301 262 508 428 828 492 950 34 66 106 203 158 305
l97 186 -118 209 c-65 116 -144 258 -176 318 -33 59 -62 107 -66 107 -3 0 -18
-26 -34 -57z"/>
</g>
</svg>
